<mxfile host="app.diagrams.net" modified="2023-06-08T06:30:11.564Z" agent="Mozilla/5.0 (Windows NT 10.0; Win64; x64) AppleWebKit/537.36 (KHTML, like Gecko) Chrome/113.0.0.0 Safari/537.36" etag="gZG7F_ZYaKCXONZjHhLs" version="21.3.7" type="github">
  <diagram name="Page-1" id="5f0bae14-7c28-e335-631c-24af17079c00">
    <mxGraphModel dx="1050" dy="581" grid="1" gridSize="10" guides="1" tooltips="1" connect="1" arrows="1" fold="1" page="1" pageScale="1" pageWidth="1100" pageHeight="850" background="none" math="0" shadow="0">
      <root>
        <mxCell id="0" />
        <mxCell id="1" parent="0" />
        <mxCell id="YfySQhe0DNi4_Yi3IIHA-3" value="Authentication Service" style="rounded=0;whiteSpace=wrap;html=1;" vertex="1" parent="1">
          <mxGeometry x="260" y="60" width="220" height="90" as="geometry" />
        </mxCell>
        <mxCell id="YfySQhe0DNi4_Yi3IIHA-4" value="Customer Service" style="rounded=0;whiteSpace=wrap;html=1;" vertex="1" parent="1">
          <mxGeometry x="820" y="10" width="220" height="110" as="geometry" />
        </mxCell>
        <mxCell id="YfySQhe0DNi4_Yi3IIHA-5" value="Transaction Service" style="rounded=0;whiteSpace=wrap;html=1;" vertex="1" parent="1">
          <mxGeometry x="820" y="335" width="220" height="90" as="geometry" />
        </mxCell>
        <mxCell id="YfySQhe0DNi4_Yi3IIHA-6" value="API Gateway" style="rounded=0;whiteSpace=wrap;html=1;" vertex="1" parent="1">
          <mxGeometry x="260" y="210" width="220" height="90" as="geometry" />
        </mxCell>
        <mxCell id="YfySQhe0DNi4_Yi3IIHA-7" value="Account Service" style="rounded=0;whiteSpace=wrap;html=1;" vertex="1" parent="1">
          <mxGeometry x="820" y="200" width="220" height="90" as="geometry" />
        </mxCell>
        <mxCell id="YfySQhe0DNi4_Yi3IIHA-8" value="Eureka Service" style="rounded=0;whiteSpace=wrap;html=1;" vertex="1" parent="1">
          <mxGeometry x="520" y="140" width="220" height="90" as="geometry" />
        </mxCell>
        <mxCell id="YfySQhe0DNi4_Yi3IIHA-9" value="Notification Service" style="rounded=0;whiteSpace=wrap;html=1;" vertex="1" parent="1">
          <mxGeometry x="820" y="490" width="220" height="90" as="geometry" />
        </mxCell>
        <mxCell id="YfySQhe0DNi4_Yi3IIHA-10" value="Client" style="ellipse;whiteSpace=wrap;html=1;aspect=fixed;" vertex="1" parent="1">
          <mxGeometry x="10" y="100" width="80" height="80" as="geometry" />
        </mxCell>
        <mxCell id="YfySQhe0DNi4_Yi3IIHA-15" value="" style="endArrow=classic;html=1;rounded=0;entryX=0;entryY=0.75;entryDx=0;entryDy=0;" edge="1" parent="1" target="YfySQhe0DNi4_Yi3IIHA-3">
          <mxGeometry width="50" height="50" relative="1" as="geometry">
            <mxPoint x="90" y="150" as="sourcePoint" />
            <mxPoint x="140" y="100" as="targetPoint" />
          </mxGeometry>
        </mxCell>
        <mxCell id="YfySQhe0DNi4_Yi3IIHA-16" value="&lt;font style=&quot;font-size: 12px;&quot;&gt;Client Request&lt;/font&gt;" style="edgeLabel;html=1;align=center;verticalAlign=middle;resizable=0;points=[];" vertex="1" connectable="0" parent="YfySQhe0DNi4_Yi3IIHA-15">
          <mxGeometry x="0.1038" relative="1" as="geometry">
            <mxPoint as="offset" />
          </mxGeometry>
        </mxCell>
        <mxCell id="YfySQhe0DNi4_Yi3IIHA-19" value="" style="endArrow=classic;html=1;rounded=0;entryX=0.97;entryY=0.213;entryDx=0;entryDy=0;entryPerimeter=0;exitX=0.005;exitY=0.376;exitDx=0;exitDy=0;exitPerimeter=0;" edge="1" parent="1" source="YfySQhe0DNi4_Yi3IIHA-3" target="YfySQhe0DNi4_Yi3IIHA-10">
          <mxGeometry width="50" height="50" relative="1" as="geometry">
            <mxPoint x="50" y="52" as="sourcePoint" />
            <mxPoint x="220" y="30" as="targetPoint" />
            <Array as="points">
              <mxPoint x="140" y="92" />
            </Array>
          </mxGeometry>
        </mxCell>
        <mxCell id="YfySQhe0DNi4_Yi3IIHA-20" value="&lt;font style=&quot;font-size: 12px;&quot;&gt;JWT Token&lt;/font&gt;" style="edgeLabel;html=1;align=center;verticalAlign=middle;resizable=0;points=[];" vertex="1" connectable="0" parent="YfySQhe0DNi4_Yi3IIHA-19">
          <mxGeometry x="0.1038" relative="1" as="geometry">
            <mxPoint as="offset" />
          </mxGeometry>
        </mxCell>
        <mxCell id="YfySQhe0DNi4_Yi3IIHA-21" value="" style="endArrow=classic;html=1;rounded=0;exitX=1;exitY=1;exitDx=0;exitDy=0;" edge="1" parent="1" source="YfySQhe0DNi4_Yi3IIHA-10" target="YfySQhe0DNi4_Yi3IIHA-6">
          <mxGeometry width="50" height="50" relative="1" as="geometry">
            <mxPoint x="100" y="160" as="sourcePoint" />
            <mxPoint x="270" y="138" as="targetPoint" />
          </mxGeometry>
        </mxCell>
        <mxCell id="YfySQhe0DNi4_Yi3IIHA-22" value="&lt;font style=&quot;font-size: 12px;&quot;&gt;Client Request with JWT&amp;nbsp;&lt;/font&gt;" style="edgeLabel;html=1;align=center;verticalAlign=middle;resizable=0;points=[];" vertex="1" connectable="0" parent="YfySQhe0DNi4_Yi3IIHA-21">
          <mxGeometry x="0.1038" relative="1" as="geometry">
            <mxPoint as="offset" />
          </mxGeometry>
        </mxCell>
        <mxCell id="YfySQhe0DNi4_Yi3IIHA-23" value="" style="endArrow=classic;startArrow=classic;html=1;rounded=0;exitX=0.5;exitY=0;exitDx=0;exitDy=0;entryX=0.005;entryY=0.18;entryDx=0;entryDy=0;entryPerimeter=0;" edge="1" parent="1" source="YfySQhe0DNi4_Yi3IIHA-6" target="YfySQhe0DNi4_Yi3IIHA-4">
          <mxGeometry width="50" height="50" relative="1" as="geometry">
            <mxPoint x="540" y="330" as="sourcePoint" />
            <mxPoint x="590" y="280" as="targetPoint" />
            <Array as="points">
              <mxPoint x="510" y="140" />
              <mxPoint x="510" y="30" />
            </Array>
          </mxGeometry>
        </mxCell>
        <mxCell id="YfySQhe0DNi4_Yi3IIHA-24" value="" style="endArrow=classic;startArrow=classic;html=1;rounded=0;entryX=0;entryY=0.75;entryDx=0;entryDy=0;exitX=0.809;exitY=1.011;exitDx=0;exitDy=0;exitPerimeter=0;" edge="1" parent="1" source="YfySQhe0DNi4_Yi3IIHA-6" target="YfySQhe0DNi4_Yi3IIHA-5">
          <mxGeometry width="50" height="50" relative="1" as="geometry">
            <mxPoint x="310" y="300" as="sourcePoint" />
            <mxPoint x="820" y="370" as="targetPoint" />
            <Array as="points">
              <mxPoint x="440" y="403" />
            </Array>
          </mxGeometry>
        </mxCell>
        <mxCell id="YfySQhe0DNi4_Yi3IIHA-25" value="" style="endArrow=classic;startArrow=classic;html=1;rounded=0;entryX=0;entryY=0.5;entryDx=0;entryDy=0;" edge="1" parent="1" target="YfySQhe0DNi4_Yi3IIHA-9">
          <mxGeometry width="50" height="50" relative="1" as="geometry">
            <mxPoint x="410" y="300" as="sourcePoint" />
            <mxPoint x="840" y="135" as="targetPoint" />
            <Array as="points">
              <mxPoint x="410" y="530" />
            </Array>
          </mxGeometry>
        </mxCell>
        <mxCell id="YfySQhe0DNi4_Yi3IIHA-26" value="" style="endArrow=classic;startArrow=classic;html=1;rounded=0;entryX=0.005;entryY=0.642;entryDx=0;entryDy=0;entryPerimeter=0;" edge="1" parent="1" target="YfySQhe0DNi4_Yi3IIHA-7">
          <mxGeometry width="50" height="50" relative="1" as="geometry">
            <mxPoint x="480" y="260" as="sourcePoint" />
            <mxPoint x="850" y="145" as="targetPoint" />
            <Array as="points">
              <mxPoint x="590" y="260" />
            </Array>
          </mxGeometry>
        </mxCell>
      </root>
    </mxGraphModel>
  </diagram>
</mxfile>
